<?xml version="1.0" encoding="utf-8"?>
<!-- Generator: Adobe Illustrator 16.0.0, SVG Export Plug-In . SVG Version: 6.00 Build 0)  -->
<!DOCTYPE svg PUBLIC "-//W3C//DTD SVG 1.1//EN" "http://www.w3.org/Graphics/SVG/1.1/DTD/svg11.dtd">
<svg version="1.1" id="레이어_1" xmlns="http://www.w3.org/2000/svg" xmlns:xlink="http://www.w3.org/1999/xlink" x="0px"
	 y="0px" width="360.512px" height="108.087px" viewBox="0 0 360.512 108.087" enable-background="new 0 0 360.512 108.087"
	 xml:space="preserve">
<g>
	<path fill="#DBC1B8" d="M180.256,108.088c91.59,0,167.22-20.482,178.732-47H1.523C13.037,87.605,88.666,108.088,180.256,108.088z"
		/>
	<path fill="#8FD3F5" d="M360.512,54.044C360.512,24.196,279.809,0,180.256,0S0,24.196,0,54.044c0,2.388,0.522,4.737,1.523,7.044
		h357.465C359.989,58.781,360.512,56.432,360.512,54.044z"/>
</g>
<g>
	<path fill="#EAF6FD" d="M61.288,84.371c-1.775,0-3.906,1.35-3.906-25.285c0-35.091,3.693-33.812,4.901-33.812H80.68
		c12.572,0,14.49,5.824,14.49,10.369c0,7.814-8.098,12.359-8.098,14.563c0,2.484,11.436,8.239,11.436,20.456
		c0,6.961-4.19,13.709-15.84,13.709H61.288z M78.62,45.802c2.06-1.492,5.043-4.973,5.043-7.885c0-3.41-2.983-4.262-5.683-4.262
		c-7.032,0-10.229,3.055-10.229,14.135c0,1.42-0.142,3.268,1.847,3.268c0.853,0,2.699-0.781,3.836-1.563L78.62,45.802z
		 M71.232,59.299c-1.918,1.064-3.054,1.49-3.054,3.834c0,10.797,2.699,12.146,8.523,12.146c5.114,0,10.299-1.988,10.299-7.529
		c0-5.043-6.25-12.146-8.168-12.146c-0.924,0-2.202,0.782-2.983,1.208L71.232,59.299z"/>
	<path fill="#EAF6FD" d="M107.88,84.371c-3.48,0-3.764,1.492-3.764-23.51c0-24.294,1.136-21.95,3.48-21.95h3.906
		c2.983,0,3.054,0.213,3.054,1.066c0,2.627-0.852,5.256-0.852,12.998c0,17.899,2.77,28.909,2.77,29.55
		c0,2.271-2.131,1.846-3.765,1.846H107.88z M104.897,28.683c0-3.053,2.628-4.9,5.469-4.9c2.842,0,5.47,1.848,5.47,4.9
		c0,3.055-2.628,4.689-5.47,4.689C107.525,33.372,104.897,31.737,104.897,28.683z"/>
	<path fill="#EAF6FD" d="M139.629,30.032c0,1.918-2.131,6.252-2.131,7.104c0,1.279,0.355,2.131,1.421,2.131
		c0.924,0,1.775-0.355,2.699-0.355c2.699,0,2.771,1.918,2.771,4.334c0,0.994,0,3.693-1.492,3.693c-0.568,0-1.988-0.641-3.268-0.641
		c-3.906,0-3.906,4.547-3.906,10.87c0,18.893,3.978,22.018,3.978,23.227c0,1.064-8.239,5.043-9.873,5.043
		c-2.699,0-3.409-15.84-3.409-19.746c0-8.736,0.426-12.147,0.426-13.497c0-2.131,0.64-5.896-2.557-5.896
		c-1.278,0-1.989,0.854-2.771,0.854c-0.923,0-0.853-0.924-0.853-2.203c0-5.396,1.563-6.037,4.262-6.037
		c0.284,0,0.781,0.285,1.35,0.285c2.202,0,2.415-3.48,2.771-5.967c0.355-2.699,8.311-4.688,9.731-4.688
		C139.274,28.542,139.629,28.683,139.629,30.032z"/>
	<path fill="#EAF6FD" d="M152.768,84.371c-2.628,0-3.906,2.203-3.906-21.309c0-19.677-0.568-24.079,1.42-24.151h5.896
		c1.065,0,2.345-0.355,2.415,0.994c0.143,1.066,0.284,2.416,1.705,2.416c1.065,0,2.273-1.137,3.765-2.273
		c1.491-1.064,3.196-2.201,5.114-2.201c3.622,0,6.605,3.125,6.605,6.961c0,4.971-4.049,7.955-6.18,7.955
		c-0.853,0,0.143-4.76-4.759-4.76c-5.967,0-6.393,9.591-6.393,13.853c0,14.135,2.415,20.102,2.415,21.379
		c-0.071,1.137-1.634,1.137-2.415,1.137H152.768z"/>
	<path fill="#EAF6FD" d="M194.887,54.821c2.06-0.354,3.693-0.709,3.693-3.053c0-3.623-3.765-5.541-6.89-5.541
		c-7.245,0-6.18,6.109-7.742,6.109c-2.273,0-4.759-2.771-4.759-5.824c0-5.258,5.895-8.666,12.43-8.666
		c2.273,0,12.004-0.072,15.627,9.873c1.491,4.119,1.633,25.146,1.633,27.632c0,3.125,0.568,4.971,0.568,7.387
		c0,1.492-6.677,1.633-12.998,1.633c-17.118,0-18.326-8.807-18.326-13.068C178.123,62.352,186.932,56.172,194.887,54.821z
		 M199.29,67.254c0-2.486,0.427-5.471-2.983-5.471c-4.19,0-8.594,3.553-8.594,7.885c0,3.979,3.48,6.322,7.245,6.322
		c4.19,0,4.332-2.131,4.332-5.611V67.254z"/>
	<path fill="#EAF6FD" d="M244.889,38.911c2.486,0,2.983,0,2.983,4.049c0,29.833-15.414,42.478-17.758,42.478
		c-1.634,0-15.91-11.934-15.91-44.323c0-2.061,0.284-2.203,2.201-2.203h5.47c0.994,0,3.055-0.355,3.055,1.137
		c0,1.635-0.355,3.125-0.355,6.25c0,17.476,5.186,24.364,6.818,24.364c2.486,0,7.104-9.73,7.104-23.583
		c0-2.484-0.427-4.475-0.427-6.676c0-1.633,0.711-1.492,2.131-1.492H244.889z"/>
	<path fill="#EAF6FD" d="M250.853,63.561c0-17.19,9.519-25.714,19.036-25.714c7.813,0,14.419,4.404,14.419,12.785
		c0,15.272-22.871,12.075-22.871,19.462c0,3.34,5.397,5.754,8.949,5.754c11.649,0,11.649-8.879,12.644-8.879
		c1.065,0,1.278,3.693,1.278,4.262c0,9.021-6.961,14.207-15.484,14.207C256.109,85.438,250.853,74.924,250.853,63.561z
		 M260.441,56.527c0,0.781,0.355,1.563,1.279,1.563c0.852,0,13.779-2.841,13.779-6.464c0-3.48-3.268-5.398-5.967-5.398
		C263.78,46.228,260.441,52.407,260.441,56.527z"/>
	<path fill="#EAF6FD" d="M292.758,84.371c-2.486,0-2.202-23.795-2.202-25.428c0-3.339-0.284-35.161,2.912-35.161h6.748
		c0.781,0,2.912-0.213,2.912,1.35c0,0.426-2.983,10.654-2.983,28.342c0,19.532,2.699,29.122,2.699,30.046
		c0,1.207-1.847,0.852-2.628,0.852H292.758z"/>
</g>
</svg>
